<svg height="512pt" viewBox="1 0 511 512" width="512pt" xmlns="http://www.w3.org/2000/svg" xmlns:xlink="http://www.w3.org/1999/xlink"><linearGradient id="a"><stop offset="0" stop-color="#662d91"/><stop offset=".437" stop-color="#3873b3"/><stop offset="1" stop-color="#00c9dd"/></linearGradient><linearGradient id="b" gradientTransform="matrix(1.066829 0 0 -1.066829 .5 507.813123)" gradientUnits="userSpaceOnUse" x1="35.144" x2="478.9005" xlink:href="#a" y1="473.8241" y2="30.0674"/><linearGradient id="c" gradientTransform="matrix(1.066829 0 0 -1.066829 .5 507.813123)" gradientUnits="userSpaceOnUse" x1="-5.3349" x2="438.4217" xlink:href="#a" y1="433.3452" y2="-10.4114"/><linearGradient id="d" gradientTransform="matrix(1.066829 0 0 -1.066829 .5 507.813123)" gradientUnits="userSpaceOnUse" x1=".6639" x2="444.4205" xlink:href="#a" y1="439.344" y2="-4.4126"/><linearGradient id="e" gradientTransform="matrix(1.066829 0 0 -1.066829 .5 507.813123)" gradientUnits="userSpaceOnUse" x1="146.6417" x2="590.3983" xlink:href="#a" y1="585.3218" y2="141.5652"/><linearGradient id="f" gradientTransform="matrix(1.066829 0 0 -1.066829 .5 507.813123)" gradientUnits="userSpaceOnUse" x1="130.6442" x2="574.4008" xlink:href="#a" y1="569.3243" y2="125.5676"/><linearGradient id="g" gradientTransform="matrix(1.066829 0 0 -1.066829 .5 507.813123)" gradientUnits="userSpaceOnUse" x1="92.6499" x2="536.4065" xlink:href="#a" y1="531.33" y2="87.5734"/><linearGradient id="h" gradientTransform="matrix(1.066829 0 0 -1.066829 .5 507.813123)" gradientUnits="userSpaceOnUse" x1="76.6524" x2="520.4089" xlink:href="#a" y1="515.3325" y2="71.5758"/><linearGradient id="i" gradientTransform="matrix(1.066829 0 0 -1.066829 .5 507.813123)" gradientUnits="userSpaceOnUse" x1="34.6587" x2="478.4153" xlink:href="#a" y1="473.3388" y2="29.5822"/><linearGradient id="j" gradientTransform="matrix(1.066829 0 0 -1.066829 .5 507.813123)" gradientUnits="userSpaceOnUse" x1="70.6533" x2="514.4099" xlink:href="#a" y1="509.3334" y2="65.5768"/><linearGradient id="k" gradientTransform="matrix(1.066829 0 0 -1.066829 .5 507.813123)" gradientUnits="userSpaceOnUse" x1="106.6478" x2="550.4044" xlink:href="#a" y1="545.3279" y2="101.5713"/><linearGradient id="l" gradientTransform="matrix(1.066829 0 0 -1.066829 .5 507.813123)" gradientUnits="userSpaceOnUse" x1="-75.3246" x2="368.4321" xlink:href="#a" y1="363.3555" y2="-80.401"/><path d="m478.367188 0h-443.734376c-18.851562 0-34.132812 15.28125-34.132812 34.132812v307.199219c0 18.851563 15.28125 34.132813 34.132812 34.132813h131.261719l-42.667969 85.335937h-28.859374c-4.714844 0-8.535157 3.820313-8.535157 8.53125v34.132813c0 4.714844 3.820313 8.535156 8.535157 8.535156h324.265624c4.714844 0 8.535157-3.820312 8.535157-8.535156v-34.132813c0-4.710937-3.820313-8.53125-8.535157-8.53125h-20.703124l-49.773438-85.335937h130.210938c18.847656 0 34.132812-15.28125 34.132812-34.132813v-307.199219c0-18.851562-15.28125-34.132812-34.132812-34.132812zm-443.734376 17.066406h443.734376c9.425781 0 17.066406 7.640625 17.066406 17.066406v8.535157h-477.867188v-8.535157c0-9.425781 7.640625-17.066406 17.066406-17.066406zm460.800782 298.667969h-477.867188v-256h477.867188zm-85.332032 179.199219h-307.203124v-17.066406h307.199218v17.066406zm-31.925781-34.132813h-235.867187l42.664062-85.335937h143.429688zm100.191407-102.402343h-443.734376c-9.425781 0-17.066406-7.640626-17.066406-17.066407v-8.53125h477.867188v8.53125c0 9.425781-7.640625 17.066407-17.066406 17.066407zm0 0" fill="url(#b)"/><path d="m201.722656 155.1875-59.730468-42.667969c-2.964844-2.117187-6.949219-2.117187-9.917969 0l-59.730469 42.667969c-3.835938 2.738281-4.726562 8.066406-1.992188 11.902344 1.601563 2.246094 4.191407 3.578125 6.949219 3.578125h8.53125v59.734375c0 4.710937 3.820313 8.53125 8.535157 8.53125h85.332031c4.714843 0 8.535156-3.820313 8.535156-8.53125v-59.734375h8.535156c4.710938 0 8.53125-3.820313 8.53125-8.535157 0-2.757812-1.332031-5.34375-3.578125-6.945312zm-64.6875-25.234375 33.097656 23.648437h-66.199218zm34.132813 91.914063h-25.601563v-25.601563h-17.066406v25.601563h-25.601562v-51.203126h68.265624v51.203126zm0 0" fill="url(#c)"/><path d="m43.167969 273.066406h187.730469c4.714843 0 8.535156-3.820312 8.535156-8.535156v-179.199219c0-4.710937-3.820313-8.53125-8.535156-8.53125h-187.730469c-4.714844 0-8.535157 3.820313-8.535157 8.53125v179.199219c0 4.714844 3.820313 8.535156 8.535157 8.535156zm8.53125-179.199218h170.667969v162.132812h-170.667969zm0 0" fill="url(#d)"/><path d="m265.03125 85.332031h204.800781v17.070313h-204.800781zm0 0" fill="url(#e)"/><path d="m265.03125 119.464844h204.800781v17.070312h-204.800781zm0 0" fill="url(#f)"/><path d="m265.03125 153.601562h110.933594v17.066407h-110.933594zm0 0" fill="url(#g)"/><path d="m265.03125 187.734375h110.933594v17.066406h-110.933594zm0 0" fill="url(#h)"/><path d="m273.566406 290.132812h42.667969c4.710937 0 8.53125-3.820312 8.53125-8.53125v-42.667968c0-4.714844-3.820313-8.535156-8.53125-8.535156h-42.667969c-4.714844 0-8.535156 3.820312-8.535156 8.535156v42.667968c0 4.710938 3.824219 8.53125 8.535156 8.53125zm8.535156-42.664062h25.597657v25.597656h-25.597657zm0 0" fill="url(#i)"/><path d="m393.035156 230.398438h-42.667968c-4.714844 0-8.535157 3.820312-8.535157 8.535156v42.667968c0 4.710938 3.820313 8.53125 8.535157 8.53125h42.667968c4.710938 0 8.53125-3.820312 8.53125-8.53125v-42.667968c0-4.714844-3.820312-8.535156-8.53125-8.535156zm-8.535156 42.667968h-25.601562v-25.597656h25.601562zm0 0" fill="url(#j)"/><path d="m427.167969 230.398438c-4.714844 0-8.535157 3.820312-8.535157 8.535156v42.667968c0 4.710938 3.820313 8.53125 8.535157 8.53125h42.664062c4.714844 0 8.535157-3.820312 8.535157-8.53125v-42.667968c0-4.714844-3.820313-8.535156-8.535157-8.535156zm34.132812 42.667968h-25.601562v-25.597656h25.601562zm0 0" fill="url(#k)"/><path d="m43.167969 281.601562h93.867187v17.066407h-93.867187zm0 0" fill="url(#l)"/></svg>